<mxfile host="app.diagrams.net" modified="2023-03-30T15:22:54.072Z" agent="5.0 (Windows NT 10.0; Win64; x64) AppleWebKit/537.36 (KHTML, like Gecko) Chrome/111.0.0.0 Safari/537.36" etag="xz4Gd_KBgTx3aMoeht_S" version="20.8.22" type="github">
  <diagram name="Page-1" id="ZqFA3AFu8LkxNYTCHI7Z">
    <mxGraphModel dx="1050" dy="587" grid="1" gridSize="10" guides="1" tooltips="1" connect="1" arrows="1" fold="1" page="1" pageScale="1" pageWidth="827" pageHeight="1169" math="0" shadow="0">
      <root>
        <mxCell id="0" />
        <mxCell id="1" parent="0" />
        <mxCell id="PSDqpMEg5afPMKG-XlhX-1" value="" style="outlineConnect=0;dashed=0;verticalLabelPosition=bottom;verticalAlign=top;align=center;html=1;shape=mxgraph.aws3.vpc_nat_gateway;fillColor=#F58534;gradientColor=none;rotation=90;" vertex="1" parent="1">
          <mxGeometry x="170" y="78" width="60" height="62" as="geometry" />
        </mxCell>
        <mxCell id="PSDqpMEg5afPMKG-XlhX-4" value="" style="rounded=1;whiteSpace=wrap;html=1;" vertex="1" parent="1">
          <mxGeometry x="90" y="450" width="590" height="160" as="geometry" />
        </mxCell>
        <mxCell id="PSDqpMEg5afPMKG-XlhX-5" value="supervisior cluster" style="text;html=1;strokeColor=none;fillColor=none;align=center;verticalAlign=middle;whiteSpace=wrap;rounded=0;" vertex="1" parent="1">
          <mxGeometry x="100" y="420" width="60" height="30" as="geometry" />
        </mxCell>
        <mxCell id="PSDqpMEg5afPMKG-XlhX-6" value="" style="rounded=0;whiteSpace=wrap;html=1;" vertex="1" parent="1">
          <mxGeometry x="130" y="490" width="120" height="60" as="geometry" />
        </mxCell>
        <mxCell id="PSDqpMEg5afPMKG-XlhX-7" value="" style="rounded=0;whiteSpace=wrap;html=1;" vertex="1" parent="1">
          <mxGeometry x="150" y="510" width="120" height="60" as="geometry" />
        </mxCell>
        <mxCell id="PSDqpMEg5afPMKG-XlhX-8" value="" style="rounded=0;whiteSpace=wrap;html=1;" vertex="1" parent="1">
          <mxGeometry x="170" y="530" width="120" height="60" as="geometry" />
        </mxCell>
        <mxCell id="PSDqpMEg5afPMKG-XlhX-9" value="control planes" style="text;html=1;strokeColor=none;fillColor=none;align=center;verticalAlign=middle;whiteSpace=wrap;rounded=0;" vertex="1" parent="1">
          <mxGeometry x="130" y="460" width="60" height="30" as="geometry" />
        </mxCell>
        <mxCell id="PSDqpMEg5afPMKG-XlhX-10" value="" style="rounded=1;whiteSpace=wrap;html=1;" vertex="1" parent="1">
          <mxGeometry x="110" y="672" width="330" height="115" as="geometry" />
        </mxCell>
        <mxCell id="PSDqpMEg5afPMKG-XlhX-13" value="" style="image;html=1;image=img/lib/clip_art/networking/Switch_128x128.png" vertex="1" parent="1">
          <mxGeometry x="120" y="670" width="30" height="30" as="geometry" />
        </mxCell>
        <mxCell id="PSDqpMEg5afPMKG-XlhX-14" value="" style="points=[];aspect=fixed;html=1;align=center;shadow=0;dashed=0;image;image=img/lib/allied_telesis/switch/Switch_24_port_L2.svg;" vertex="1" parent="1">
          <mxGeometry x="170" y="700" width="74.4" height="51" as="geometry" />
        </mxCell>
        <mxCell id="PSDqpMEg5afPMKG-XlhX-15" value="" style="points=[];aspect=fixed;html=1;align=center;shadow=0;dashed=0;image;image=img/lib/allied_telesis/switch/Switch_24_port_L2.svg;" vertex="1" parent="1">
          <mxGeometry x="260" y="700" width="74.4" height="51" as="geometry" />
        </mxCell>
        <mxCell id="PSDqpMEg5afPMKG-XlhX-16" value="" style="points=[];aspect=fixed;html=1;align=center;shadow=0;dashed=0;image;image=img/lib/allied_telesis/switch/Switch_24_port_L2.svg;" vertex="1" parent="1">
          <mxGeometry x="342.8" y="704" width="74.4" height="51" as="geometry" />
        </mxCell>
        <mxCell id="PSDqpMEg5afPMKG-XlhX-17" value="" style="rounded=1;whiteSpace=wrap;html=1;" vertex="1" parent="1">
          <mxGeometry x="685" y="15" width="120" height="50" as="geometry" />
        </mxCell>
        <mxCell id="PSDqpMEg5afPMKG-XlhX-18" value="" style="rounded=1;whiteSpace=wrap;html=1;" vertex="1" parent="1">
          <mxGeometry x="680" y="155" width="130" height="50" as="geometry" />
        </mxCell>
        <mxCell id="PSDqpMEg5afPMKG-XlhX-19" value="" style="outlineConnect=0;dashed=0;verticalLabelPosition=bottom;verticalAlign=top;align=center;html=1;shape=mxgraph.aws3.vpc_nat_gateway;fillColor=#F58534;gradientColor=none;rotation=90;" vertex="1" parent="1">
          <mxGeometry x="550" y="78" width="60" height="62" as="geometry" />
        </mxCell>
        <mxCell id="PSDqpMEg5afPMKG-XlhX-20" value="" style="endArrow=none;html=1;rounded=0;entryX=0;entryY=0.5;entryDx=0;entryDy=0;" edge="1" parent="1" target="PSDqpMEg5afPMKG-XlhX-17">
          <mxGeometry width="50" height="50" relative="1" as="geometry">
            <mxPoint x="60" y="40" as="sourcePoint" />
            <mxPoint x="600" y="10" as="targetPoint" />
            <Array as="points">
              <mxPoint x="640" y="40" />
              <mxPoint x="670" y="40" />
            </Array>
          </mxGeometry>
        </mxCell>
        <mxCell id="PSDqpMEg5afPMKG-XlhX-21" value="" style="endArrow=none;html=1;rounded=0;entryX=0;entryY=0.5;entryDx=0;entryDy=0;" edge="1" parent="1" target="PSDqpMEg5afPMKG-XlhX-18">
          <mxGeometry width="50" height="50" relative="1" as="geometry">
            <mxPoint x="70" y="180" as="sourcePoint" />
            <mxPoint x="450" y="150" as="targetPoint" />
          </mxGeometry>
        </mxCell>
        <mxCell id="PSDqpMEg5afPMKG-XlhX-22" value="" style="endArrow=none;html=1;rounded=0;exitX=0;exitY=0.5;exitDx=0;exitDy=0;exitPerimeter=0;" edge="1" parent="1" source="PSDqpMEg5afPMKG-XlhX-1">
          <mxGeometry width="50" height="50" relative="1" as="geometry">
            <mxPoint x="170" y="90" as="sourcePoint" />
            <mxPoint x="200" y="40" as="targetPoint" />
          </mxGeometry>
        </mxCell>
        <mxCell id="PSDqpMEg5afPMKG-XlhX-23" value="" style="endArrow=none;html=1;rounded=0;entryX=1;entryY=0.5;entryDx=0;entryDy=0;entryPerimeter=0;" edge="1" parent="1" target="PSDqpMEg5afPMKG-XlhX-1">
          <mxGeometry width="50" height="50" relative="1" as="geometry">
            <mxPoint x="200" y="180" as="sourcePoint" />
            <mxPoint x="230" y="130" as="targetPoint" />
          </mxGeometry>
        </mxCell>
        <mxCell id="PSDqpMEg5afPMKG-XlhX-24" value="" style="endArrow=none;html=1;rounded=0;exitX=0;exitY=0.5;exitDx=0;exitDy=0;exitPerimeter=0;" edge="1" parent="1" source="PSDqpMEg5afPMKG-XlhX-19">
          <mxGeometry width="50" height="50" relative="1" as="geometry">
            <mxPoint x="550" y="80" as="sourcePoint" />
            <mxPoint x="580" y="40" as="targetPoint" />
          </mxGeometry>
        </mxCell>
        <mxCell id="PSDqpMEg5afPMKG-XlhX-25" value="" style="endArrow=none;html=1;rounded=0;entryX=1;entryY=0.5;entryDx=0;entryDy=0;entryPerimeter=0;" edge="1" parent="1" target="PSDqpMEg5afPMKG-XlhX-19">
          <mxGeometry width="50" height="50" relative="1" as="geometry">
            <mxPoint x="580" y="180" as="sourcePoint" />
            <mxPoint x="580" y="150" as="targetPoint" />
          </mxGeometry>
        </mxCell>
        <mxCell id="PSDqpMEg5afPMKG-XlhX-26" value="Frontend Network" style="text;html=1;strokeColor=none;fillColor=none;align=center;verticalAlign=middle;whiteSpace=wrap;rounded=0;" vertex="1" parent="1">
          <mxGeometry x="715" y="25" width="60" height="30" as="geometry" />
        </mxCell>
        <mxCell id="PSDqpMEg5afPMKG-XlhX-27" value="Management&lt;br&gt;&amp;nbsp;Network" style="text;html=1;strokeColor=none;fillColor=none;align=center;verticalAlign=middle;whiteSpace=wrap;rounded=0;" vertex="1" parent="1">
          <mxGeometry x="720" y="165" width="60" height="30" as="geometry" />
        </mxCell>
        <mxCell id="PSDqpMEg5afPMKG-XlhX-28" value="se" style="text;html=1;strokeColor=none;fillColor=none;align=center;verticalAlign=middle;whiteSpace=wrap;rounded=0;" vertex="1" parent="1">
          <mxGeometry x="210" y="70" width="60" height="30" as="geometry" />
        </mxCell>
        <mxCell id="PSDqpMEg5afPMKG-XlhX-29" value="se" style="text;html=1;strokeColor=none;fillColor=none;align=center;verticalAlign=middle;whiteSpace=wrap;rounded=0;" vertex="1" parent="1">
          <mxGeometry x="590" y="70" width="60" height="30" as="geometry" />
        </mxCell>
        <mxCell id="PSDqpMEg5afPMKG-XlhX-30" value="" style="ellipse;whiteSpace=wrap;html=1;" vertex="1" parent="1">
          <mxGeometry x="342.8" y="140" width="120" height="80" as="geometry" />
        </mxCell>
        <mxCell id="PSDqpMEg5afPMKG-XlhX-31" value="avi controller" style="text;html=1;strokeColor=none;fillColor=none;align=center;verticalAlign=middle;whiteSpace=wrap;rounded=0;" vertex="1" parent="1">
          <mxGeometry x="370" y="165" width="60" height="30" as="geometry" />
        </mxCell>
        <mxCell id="PSDqpMEg5afPMKG-XlhX-33" value="" style="rounded=1;whiteSpace=wrap;html=1;" vertex="1" parent="1">
          <mxGeometry x="680" y="82" width="130" height="50" as="geometry" />
        </mxCell>
        <mxCell id="PSDqpMEg5afPMKG-XlhX-34" value="Workload Network" style="text;html=1;strokeColor=none;fillColor=none;align=center;verticalAlign=middle;whiteSpace=wrap;rounded=0;" vertex="1" parent="1">
          <mxGeometry x="710" y="94" width="60" height="30" as="geometry" />
        </mxCell>
      </root>
    </mxGraphModel>
  </diagram>
</mxfile>
